<?xml version="1.0" encoding="UTF-8" standalone="no"?>
<!-- Created with Inkscape (http://www.inkscape.org/) -->

<svg
   width="512"
   height="512"
   viewBox="0 0 135.46666 135.46667"
   version="1.1"
   id="svg5"
   inkscape:version="1.2.2 (b0a8486541, 2022-12-01)"
   sodipodi:docname="icon_decabase.svg"
   xmlns:inkscape="http://www.inkscape.org/namespaces/inkscape"
   xmlns:sodipodi="http://sodipodi.sourceforge.net/DTD/sodipodi-0.dtd"
   xmlns="http://www.w3.org/2000/svg"
   xmlns:svg="http://www.w3.org/2000/svg">
  <sodipodi:namedview
     id="namedview7"
     pagecolor="#ffffff"
     bordercolor="#666666"
     borderopacity="1.0"
     inkscape:pageshadow="2"
     inkscape:pageopacity="0.0"
     inkscape:pagecheckerboard="0"
     inkscape:document-units="mm"
     showgrid="false"
     units="px"
     inkscape:zoom="0.64052329"
     inkscape:cx="77.280562"
     inkscape:cy="570.62718"
     inkscape:window-width="2560"
     inkscape:window-height="1563"
     inkscape:window-x="0"
     inkscape:window-y="0"
     inkscape:window-maximized="1"
     inkscape:current-layer="layer1"
     inkscape:showpageshadow="2"
     inkscape:deskcolor="#d1d1d1" />
  <defs
     id="defs2" />
  <g
     inkscape:label="Layer 1"
     inkscape:groupmode="layer"
     id="layer1">
    <path
       fill="#0188cc"
       d="m 73.161128,36.855992 c -0.15349,0.153492 -0.281067,0.356816 -0.281067,0.450507 0,0.09373 -1.084393,2.148846 -2.411977,4.566804 -1.082401,1.971444 -2.162807,3.942888 -3.241221,5.914332 -1.469114,2.697037 -8.74093,15.968886 -9.342928,17.053291 -0.320933,0.578075 -1.090374,1.997351 -1.708318,3.153502 -0.617945,1.156167 -1.303664,2.419955 -1.520943,2.810662 -0.217277,0.388712 -0.845189,1.544863 -1.393365,2.569453 -0.548178,1.022594 -1.096354,1.987385 -1.219944,2.142872 -0.558143,0.701668 0.145517,0.769437 7.859861,0.769437 5.948218,0 7.837934,-0.06784 8.013349,-0.291027 0.12757,-0.161461 0.578078,-0.922928 1.002667,-1.694361 0.422593,-0.771433 0.944857,-1.716291 1.158148,-2.103006 0.215284,-0.384732 0.815288,-1.489056 1.335558,-2.45185 1.309644,-2.429921 4.006675,-7.399395 4.628607,-8.525648 l 1.285723,-2.336229 c 0.424587,-0.771433 0.946852,-1.718287 1.160143,-2.103005 0.21329,-0.384719 0.843196,-1.542867 1.395358,-2.569454 0.554158,-1.028582 1.869785,-3.44654 2.924275,-5.374125 1.054494,-1.925604 2.290381,-4.186078 2.742877,-5.021303 0.466447,-0.857155 0.934891,-1.714295 1.40533,-2.569454 0.318939,-0.578076 0.922928,-1.682413 1.341534,-2.453846 0.418612,-0.769437 0.853165,-1.501004 0.96679,-1.6226 0.111628,-0.121652 0.205314,-0.306982 0.205314,-0.408643 0,-0.322923 -15.982846,-0.231228 -16.305771,0.09373 m -23.34237,5.850541 c -0.123592,0.161461 -0.67974,1.134237 -1.233897,2.160809 -1.716293,3.185413 -2.368124,4.377453 -3.382751,6.191414 -0.540203,0.962794 -1.542868,2.802676 -2.226594,4.088408 -0.685719,1.283721 -1.96347,3.633909 -2.83856,5.222631 -0.877082,1.588707 -1.594696,2.980079 -1.594696,3.0957 0,0.113697 -0.105654,0.207316 -0.235218,0.207316 -0.12757,0 -0.233224,0.211295 -0.233224,0.472422 0,0.47841 15.071876,0.735559 15.813408,0.269112 0.249173,-0.155487 0.647846,-0.817288 1.999351,-3.310987 0.382727,-0.707656 0.998679,-1.835904 1.369446,-2.511649 0.845189,-1.538889 1.692371,-3.077764 2.541548,-4.612659 0.21329,-0.386715 0.845189,-1.542867 1.40134,-2.569454 0.556149,-1.028582 1.536888,-2.816635 2.178753,-3.972787 0.639873,-1.156166 1.465128,-2.643212 1.829914,-3.305013 0.364787,-0.663797 0.665786,-1.319609 0.665786,-1.461137 0,-0.392704 -15.749621,-0.356816 -16.054606,0.03587 M 81.363846,59.52664 c -0.103658,0.159466 -0.300997,0.502322 -0.438539,0.759471 -0.139532,0.257149 -0.516284,0.938883 -0.839211,1.516959 -0.322925,0.578076 -1.096353,1.997352 -1.718285,3.153503 -0.619939,1.158148 -1.373432,2.495709 -1.672438,2.97412 -0.299004,0.480391 -0.544189,0.922928 -0.544189,0.984723 0,0.06177 -1.050506,2.013292 -2.336231,4.335577 -1.285725,2.32227 -2.336229,4.255844 -2.336229,4.295711 0,0.0418 -0.538212,1.010645 -1.196023,2.152838 -0.657813,1.142207 -1.666458,2.970127 -2.242542,4.062501 -0.576084,1.09236 -1.126255,2.091043 -1.221938,2.218612 -0.09767,0.129609 -0.683725,1.180077 -1.299677,2.33623 -0.615951,1.156166 -1.351504,2.523612 -1.634564,3.037896 -0.283058,0.514298 -0.857148,1.564801 -1.27775,2.33623 -0.418607,0.769457 -1.221937,2.212651 -1.784067,3.203354 -0.564123,0.99071 -1.022599,1.859815 -1.022599,1.929578 0,0.06973 3.641889,0.10169 8.093085,0.06783 l 8.093085,-0.06176 1.022598,-1.847851 c 1.309645,-2.372108 2.601349,-4.754186 3.877105,-7.146228 0.512298,-0.962794 1.060476,-1.961477 1.215961,-2.218627 0.273088,-0.44851 0.994687,-1.752179 2.425928,-4.381431 0.560139,-1.028568 2.742877,-5.017311 6.805368,-12.438636 1.487058,-2.720948 2.968127,-5.44787 4.443226,-8.174806 0.554158,-1.028583 1.148179,-2.077099 1.319609,-2.330255 0.721597,-1.064457 0.77542,-1.058483 -7.614678,-1.058483 -6.08775,0 -7.973481,0.06784 -8.117005,0.293038"
       fill-opacity="1"
       fill-rule="evenodd"
       id="path150"
       style="stroke-width:0.510303" />
  </g>
</svg>
